<svg id="Layer_1" data-name="Layer 1" xmlns="http://www.w3.org/2000/svg" viewBox="0 0 288.85 42.77"><defs><style>.cls-1{fill:#005da9;}.cls-2{fill:#004b8d;}.cls-3,.cls-5,.cls-7,.cls-8,.cls-9{fill:none;}.cls-3{stroke:#005da9;stroke-width:0.37px;}.cls-4{fill:#e51932;}.cls-5,.cls-7,.cls-8{stroke:#fff;}.cls-5{stroke-width:0.93px;}.cls-6{fill:#fff;}.cls-7{stroke-width:0.65px;}.cls-8{stroke-width:1.67px;}.cls-9{stroke:#e31837;stroke-width:0.46px;}</style></defs><title>SMUCAPElogo</title><path class="cls-1" d="M335.62,84.15h-.18A2.46,2.46,0,0,0,333,81.81c-2.21,0-3.45,1.81-3.45,3.89a3.87,3.87,0,0,0,3.57,4c1.58,0,2.21-1.16,2.75-2.46l.17.07a11.51,11.51,0,0,1-.66,2.16,5.58,5.58,0,0,1-2.46.52c-2.52,0-4.77-1.45-4.77-4.18,0-2.15,1.68-4.32,4.86-4.32a5.17,5.17,0,0,1,2.64.65Z" transform="translate(-191.46 -70.23)"/><path class="cls-1" d="M338.16,86.08c0,1.61.85,3.67,2.73,3.67,1.72,0,2.48-1.75,2.48-3.24,0-1.84-1.1-3.59-2.69-3.59-1.79,0-2.51,1.75-2.51,3.15m6.41.26a3.81,3.81,0,1,1-3.82-3.66,3.51,3.51,0,0,1,3.82,3.66" transform="translate(-191.46 -70.23)"/><path class="cls-1" d="M352.14,88.24l-.05-3.8c0-1-.28-1.28-1.46-1.49V82.8h2.84V83c-.72.09-.85.49-.94,1.16a55.9,55.9,0,0,0,0,5.92l-.13,0c-1.67-2-3.52-3.79-5.27-5.68v1.91c0,2.58-.06,3.11,1.45,3.41v.16h-3.11v-.16c1.4-.15,1.35-1.1,1.35-3.46V84.69c0-1-.17-1.45-1.49-1.74V82.8H347Z" transform="translate(-191.46 -70.23)"/><path class="cls-1" d="M360.31,82.48h.08l.15,1.95-.15,0c-.36-1.29-.94-1.34-2.13-1.34h-.62v4.81c0,1.29.06,1.63,1.46,1.8v.16h-3.83v-.16c1.39-.17,1.46-.51,1.46-1.8V83.11h-.62c-1.2,0-1.77.05-2.13,1.34l-.15,0,.15-1.95h.08l.1.09a.66.66,0,0,0,.65.23h4.76a.66.66,0,0,0,.65-.23Z" transform="translate(-191.46 -70.23)"/><path class="cls-1" d="M363.25,88.17c0,1.07,0,1.38,1.29,1.55v.16H361v-.16c1.25-.17,1.26-.48,1.29-1.55V84.51c0-1.07,0-1.38-1.29-1.55V82.8h3.49V83c-1.25.17-1.26.48-1.29,1.55Z" transform="translate(-191.46 -70.23)"/><path class="cls-1" d="M371.89,88.24l-.05-3.8c0-1-.28-1.28-1.46-1.49V82.8h2.84V83c-.72.09-.85.49-.94,1.16a55.85,55.85,0,0,0,0,5.92l-.14,0c-1.66-2-3.51-3.79-5.27-5.68v1.91c0,2.58-.06,3.11,1.45,3.41v.16h-3.11v-.16c1.4-.15,1.35-1.1,1.35-3.46V84.69c0-1-.17-1.45-1.49-1.74V82.8h1.72Z" transform="translate(-191.46 -70.23)"/><path class="cls-1" d="M381.92,82.8V83c-.95.1-1,.69-1.05,2.06l-.06,2.28c0,1.34-.6,2.7-2.91,2.7-3.22,0-2.89-2.33-2.89-3.16V84.51c0-1.07,0-1.38-1.29-1.55V82.8h3.59V83c-1.36.2-1.38.41-1.38,1.55v2.13a2.41,2.41,0,0,0,2.52,2.88c2.25,0,2-2.14,2-3.41V85c0-1.32-.1-1.92-1.56-2.06V82.8Z" transform="translate(-191.46 -70.23)"/><path class="cls-1" d="M384.67,88.17c0,1.07,0,1.38,1.29,1.55v.16h-3.49v-.16c1.25-.17,1.26-.48,1.29-1.55V84.51c0-1.07,0-1.38-1.29-1.55V82.8H386V83c-1.25.17-1.26.48-1.29,1.55Z" transform="translate(-191.46 -70.23)"/><path class="cls-1" d="M393.31,88.24l-.05-3.8c0-1-.28-1.28-1.46-1.49V82.8h2.84V83c-.72.09-.85.49-.94,1.16a55.85,55.85,0,0,0,0,5.92l-.14,0c-1.66-2-3.51-3.79-5.27-5.68v1.91c0,2.58-.06,3.11,1.45,3.41v.16h-3.11v-.16c1.4-.15,1.35-1.1,1.35-3.46V84.69c0-1-.17-1.45-1.49-1.74V82.8h1.72Z" transform="translate(-191.46 -70.23)"/><path class="cls-1" d="M402.48,89.07v.16a7.51,7.51,0,0,1-3.14.77c-2.14,0-4-1.3-4-3.58a3.92,3.92,0,0,1,4.19-3.75,7.76,7.76,0,0,1,2.43.41l0,1.81h-.14a2.29,2.29,0,0,0-2.35-2A2.87,2.87,0,0,0,396.58,86a3.46,3.46,0,0,0,3.54,3.61c.95,0,.94-.25.94-.93V88.1c0-1.15-.3-1.28-1.4-1.41v-.16h3.08v.16c-.73.14-.76.44-.76,1.08v1.31Z" transform="translate(-191.46 -70.23)"/><path class="cls-1" d="M409.49,83.73l-1,2.7h2.06Zm-1.15,3.18a9.85,9.85,0,0,0-.64,2.1c0,.63.72.63,1.19.71v.16H406v-.16c.93-.25,1-.46,1.34-1.27l1.17-3.07.62-1.7c.09-.27.23-.52.11-.72a2,2,0,0,0,.76-.56l2.29,6.1c.28.76.46,1.06,1.29,1.22v.16h-3.06v-.16c.36-.08.8-.2.8-.67a9.63,9.63,0,0,0-.67-2.14Z" transform="translate(-191.46 -70.23)"/><path class="cls-1" d="M420.39,88.24l-.05-3.8c0-1-.28-1.28-1.46-1.49V82.8h2.84V83c-.72.09-.85.49-.94,1.16a55.85,55.85,0,0,0,0,5.92l-.14,0c-1.66-2-3.51-3.79-5.27-5.68v1.91c0,2.58-.06,3.11,1.45,3.41v.16h-3.11v-.16c1.4-.15,1.35-1.1,1.35-3.46V84.69c0-1-.17-1.45-1.49-1.74V82.8h1.72Z" transform="translate(-191.46 -70.23)"/><path class="cls-1" d="M424.42,88.27c0,.7.13,1.36,1.41,1.36a2.79,2.79,0,0,0,2.81-3.12c0-2.5-2-3.54-4.22-3.53Zm-2.14-5.41,2.52-.08c4.58-.15,5.05,2.5,5.05,3.58,0,1.49-1,3.57-4.54,3.54l-3.1,0v-.16c1.25-.17,1.26-.48,1.29-1.55V84.56c0-1.07,0-1.38-1.23-1.55Z" transform="translate(-191.46 -70.23)"/><path class="cls-1" d="M327.9,95.94l2.63-.1c3.54-.13,3.8,1.76,3.8,2.23,0,1.69-1.68,2.29-3.09,2.45l0-.18c1.1-.17,1.89-.74,1.89-1.94,0-1.57-1.32-2.28-2.73-2.27v6c0,1.33,0,1.57,1.6,1.8v.18h-4.16v-.18c1.45-.19,1.46-.56,1.5-1.8V98.35c0-1.64,0-2.16-1.41-2.23Z" transform="translate(-191.46 -70.23)"/><path class="cls-1" d="M337.22,100.51c1,0,2.16-.47,2.16-1.62s-1.07-1.7-2.16-1.69Zm-.91-1.37c0-1.59-.05-1.83-1.22-1.93v-.15l2.54-.08c2.62-.08,2.83,1.2,2.83,1.7a1.82,1.82,0,0,1-1.29,1.71l.05.07c.8,1.4,1.8,3.19,3.52,3.55l0,.16c-1.1-.05-1.91,0-2.52-.64a9.11,9.11,0,0,1-1.45-2.08c-.42-.86-.79-.61-1.52-.74v1.67c0,1.15,0,1.35,1.45,1.55v.16H335v-.16c1.25-.17,1.26-.48,1.29-1.55Z" transform="translate(-191.46 -70.23)"/><path class="cls-1" d="M343.74,100.28c0,1.61.85,3.67,2.73,3.67,1.72,0,2.48-1.75,2.48-3.24,0-1.84-1.1-3.59-2.69-3.59-1.79,0-2.51,1.75-2.51,3.15m6.41.26a3.81,3.81,0,1,1-3.82-3.66,3.51,3.51,0,0,1,3.82,3.66" transform="translate(-191.46 -70.23)"/><path class="cls-1" d="M355.86,99.29v2.54h-.16c-.08-1.05-.62-1-1.5-1h-1.13v1.57c0,1.11.05,1.33,1.5,1.55v.16h-3.7v-.16c1.25-.17,1.26-.48,1.29-1.55V98.7c0-1.07,0-1.38-1.29-1.55V97h5.5l-.17,1.64H356c-.06-1.34-.94-1.39-2-1.39h-.95v3.11h1.13c.87,0,1.41-.08,1.5-1.07Z" transform="translate(-191.46 -70.23)"/><path class="cls-1" d="M357.06,103.92c1.25-.17,1.26-.48,1.29-1.55V98.71c0-1.07,0-1.38-1.29-1.55V97h5.59l-.12,1.6h-.16c-.07-1.34-1-1.35-2.09-1.35h-1v3h1.08c.78,0,1.37-.06,1.49-1H362v2.32h-.16c-.14-.92-.71-.93-1.49-.93h-1.08v1.71c0,.61-.14,1.47,1.56,1.47A1.94,1.94,0,0,0,363,102h.16a6.54,6.54,0,0,1-.35,2.06h-5.78Z" transform="translate(-191.46 -70.23)"/><path class="cls-1" d="M368.08,98.83h-.17c-.17-.84-.44-1.65-1.47-1.65a1.15,1.15,0,0,0-1.22,1.14c0,1.8,3.28,1.74,3.28,3.84a2.29,2.29,0,0,1-2.53,2,3.44,3.44,0,0,1-1.83-.53l-.3-1.77H364a2.34,2.34,0,0,0,2.1,2,1.25,1.25,0,0,0,1.37-1.27c0-1.85-3.18-1.69-3.18-3.77a2.19,2.19,0,0,1,2.32-2,3.21,3.21,0,0,1,1.52.41Z" transform="translate(-191.46 -70.23)"/><path class="cls-1" d="M373.49,98.83h-.17c-.17-.84-.44-1.65-1.47-1.65a1.15,1.15,0,0,0-1.22,1.14c0,1.8,3.28,1.74,3.28,3.84a2.29,2.29,0,0,1-2.53,2,3.45,3.45,0,0,1-1.83-.53l-.3-1.77h.19a2.34,2.34,0,0,0,2.1,2,1.25,1.25,0,0,0,1.37-1.27c0-1.85-3.18-1.69-3.18-3.77a2.2,2.2,0,0,1,2.32-2,3.21,3.21,0,0,1,1.52.41Z" transform="translate(-191.46 -70.23)"/><path class="cls-1" d="M376.95,102.37c0,1.07,0,1.38,1.29,1.55v.16h-3.49v-.16c1.25-.17,1.26-.48,1.29-1.55V98.71c0-1.07,0-1.38-1.29-1.55V97h3.49v.16c-1.25.17-1.26.48-1.29,1.55Z" transform="translate(-191.46 -70.23)"/><path class="cls-1" d="M380.34,100.28c0,1.61.85,3.67,2.73,3.67,1.72,0,2.48-1.75,2.48-3.24,0-1.84-1.1-3.59-2.69-3.59-1.79,0-2.51,1.75-2.51,3.15m6.41.26a3.81,3.81,0,1,1-3.82-3.66,3.51,3.51,0,0,1,3.82,3.66" transform="translate(-191.46 -70.23)"/><path class="cls-1" d="M394.32,102.44l-.05-3.8c0-1-.28-1.28-1.46-1.49V97h2.84v.16c-.72.09-.85.49-.94,1.16a55.65,55.65,0,0,0,0,5.92l-.14,0c-1.66-2-3.51-3.79-5.27-5.68v1.91c0,2.58-.06,3.11,1.45,3.41v.16H387.6v-.16c1.4-.15,1.35-1.1,1.35-3.46V98.89c0-1-.17-1.45-1.49-1.74V97h1.71Z" transform="translate(-191.46 -70.23)"/><path class="cls-1" d="M399,97.92l-1,2.7h2.06Zm-1.15,3.18a9.85,9.85,0,0,0-.64,2.1c0,.63.72.63,1.19.71v.16h-2.85v-.16c.93-.25,1-.46,1.34-1.27l1.17-3.07.63-1.7c.09-.27.23-.52.11-.72a2,2,0,0,0,.76-.56l2.29,6.1c.28.76.46,1.06,1.29,1.22v.16H400.1v-.16c.37-.08.8-.2.8-.66a9.63,9.63,0,0,0-.67-2.14Z" transform="translate(-191.46 -70.23)"/><path class="cls-1" d="M403.22,103.92c1.25-.17,1.26-.48,1.29-1.55V98.71c0-1.07,0-1.38-1.29-1.55V97h3.49v.16c-1.25.17-1.29.48-1.29,1.55v3.41a5.3,5.3,0,0,0,.16,1.57l1.27.09c1.58.11,1.84-.37,2.64-1.71l.14.06-.59,1.93h-5.81Z" transform="translate(-191.46 -70.23)"/><path class="cls-1" d="M412.83,103.89c1.45-.19,1.46-.55,1.5-1.8V97.85c0-1.24,0-1.61-1.5-1.8v-.18h6.48l-.15,1.86H419c-.09-1.56-1.21-1.57-2.43-1.57h-1.17V99.6h1.25c.9,0,1.59-.07,1.73-1.11h.18v2.69h-.18c-.16-1.06-.82-1.07-1.73-1.07h-1.25v2c0,.71-.17,1.7,1.81,1.7a2.25,2.25,0,0,0,2.57-2.1H420a7.59,7.59,0,0,1-.41,2.39h-6.71Z" transform="translate(-191.46 -70.23)"/><path class="cls-1" d="M423,102.47c0,.7.13,1.36,1.41,1.36a2.79,2.79,0,0,0,2.81-3.12c0-2.5-2-3.54-4.22-3.53Zm-2.14-5.41,2.52-.08c4.58-.15,5.05,2.5,5.05,3.58,0,1.49-1,3.57-4.54,3.54l-3.1,0v-.16c1.25-.17,1.26-.48,1.29-1.55V98.76c0-1.07,0-1.38-1.23-1.55Z" transform="translate(-191.46 -70.23)"/><path class="cls-1" d="M437.47,97v.16c-.95.1-1,.69-1.05,2.06l-.06,2.28c0,1.34-.6,2.7-2.91,2.7-3.22,0-2.89-2.33-2.89-3.16V98.7c0-1.07,0-1.38-1.29-1.55V97h3.59v.16c-1.36.2-1.38.41-1.38,1.55v2.13a2.41,2.41,0,0,0,2.52,2.88c2.25,0,2-2.14,2-3.41V99.21c0-1.32-.1-1.92-1.56-2.06V97Z" transform="translate(-191.46 -70.23)"/><path class="cls-1" d="M444.71,99.14h-.16a2.12,2.12,0,0,0-2.13-2,3.05,3.05,0,0,0-3,3.35,3.34,3.34,0,0,0,3.08,3.48c1.36,0,1.9-1,2.37-2.12l.15.06a9.93,9.93,0,0,1-.57,1.86,4.81,4.81,0,0,1-2.12.45c-2.17,0-4.11-1.25-4.11-3.6,0-1.85,1.45-3.72,4.19-3.72a4.46,4.46,0,0,1,2.28.56Z" transform="translate(-191.46 -70.23)"/><path class="cls-1" d="M448.57,97.92l-1,2.7h2.06Zm-1.15,3.18a9.85,9.85,0,0,0-.64,2.1c0,.63.72.63,1.19.71v.16h-2.85v-.16c.93-.25,1-.46,1.34-1.27l1.17-3.07.62-1.7c.09-.27.23-.52.11-.72a2,2,0,0,0,.76-.56l2.29,6.1c.28.76.46,1.06,1.29,1.22v.16h-3.06v-.16c.36-.08.8-.2.8-.66a9.63,9.63,0,0,0-.67-2.14Z" transform="translate(-191.46 -70.23)"/><path class="cls-1" d="M458.67,96.68h.08l.15,1.95-.15,0c-.36-1.29-.94-1.34-2.13-1.34H456v4.81c0,1.29.06,1.63,1.46,1.8v.16h-3.83v-.16c1.39-.17,1.46-.51,1.46-1.8V97.31h-.62c-1.2,0-1.77.05-2.13,1.34l-.15,0,.15-1.95h.08l.1.09a.66.66,0,0,0,.64.23h4.76a.66.66,0,0,0,.65-.23Z" transform="translate(-191.46 -70.23)"/><path class="cls-1" d="M461.6,102.37c0,1.07,0,1.38,1.29,1.55v.16H459.4v-.16c1.25-.17,1.26-.48,1.29-1.55V98.71c0-1.07,0-1.38-1.29-1.55V97h3.49v.16c-1.25.17-1.26.48-1.29,1.55Z" transform="translate(-191.46 -70.23)"/><path class="cls-1" d="M465,100.28c0,1.61.85,3.67,2.73,3.67,1.72,0,2.48-1.75,2.48-3.24,0-1.84-1.1-3.59-2.69-3.59-1.79,0-2.51,1.75-2.51,3.15m6.41.26a3.81,3.81,0,1,1-3.82-3.66,3.51,3.51,0,0,1,3.82,3.66" transform="translate(-191.46 -70.23)"/><path class="cls-1" d="M479,102.44l-.05-3.8c0-1-.28-1.28-1.46-1.49V97h2.84v.16c-.72.09-.85.49-.94,1.16a55.64,55.64,0,0,0,0,5.92l-.14,0c-1.66-2-3.52-3.79-5.27-5.68v1.91c0,2.58-.06,3.11,1.45,3.41v.16h-3.11v-.16c1.4-.15,1.35-1.1,1.35-3.46V98.89c0-1-.17-1.45-1.49-1.74V97h1.71Z" transform="translate(-191.46 -70.23)"/><path class="cls-1" d="M253.54,87.45H253c-.53-2.66-1.38-5.22-4.63-5.22a3.64,3.64,0,0,0-3.85,3.61c0,5.68,10.35,5.49,10.35,12.12,0,4.24-4.2,6.44-8,6.44a10.89,10.89,0,0,1-5.78-1.67l-1-5.59h.59c.82,3.15,3,6.28,6.64,6.28,2.43,0,4.34-1.45,4.34-4,0-5.85-10.05-5.32-10.05-11.89,0-3.85,3.81-6.28,7.33-6.28a10.16,10.16,0,0,1,4.8,1.28Z" transform="translate(-191.46 -70.23)"/><path class="cls-1" d="M271.48,99.21l5.95-13.08c.82-1.81,1.28-3.45.56-3.94l.07-.53h7.23v.49c-2.1.43-3.38,1.22-3.25,3.52l.72,12c.36,4.56.36,5.29,3.88,5.88V104H275.81v-.49c2.53-.39,4.14-.69,4-3.58l-.89-14.36h-.07L270.46,104h-.36l-7.79-17.67h-.07c-.53,5-.79,8.67-1,13.77-.06,1.28,0,2.76,3.94,3.42V104H256v-.49c2.92-.49,3.22-1.91,3.68-4.57l1.22-9.23.43-4.47c.2-2.17-1.68-2.92-3.61-3.09v-.49h7.1l0,.36c-.72.75.16,2.73.39,3.25Z" transform="translate(-191.46 -70.23)"/><path class="cls-1" d="M313,81.67v.49c-3,.33-3.19,2.17-3.32,6.51l-.2,7.19c-.1,4.24-1.9,8.54-9.2,8.54-10.19,0-9.14-7.36-9.14-10V87.05c-.1-3.38-.13-4.37-4.07-4.9v-.49h11.34v.49c-4.3.63-4.37,1.28-4.37,4.9v6.74c0,.63-1.05,9.1,7.95,9.1,7.1,0,6.41-6.77,6.41-10.78V88.66c0-4.17-.33-6.08-4.93-6.51v-.49Z" transform="translate(-191.46 -70.23)"/><path class="cls-1" d="M312.79,102.73a.27.27,0,0,0-.28-.32c-.28,0-.31.18-.31.31a.23.23,0,0,0,.17.24l.28.11c.33.12.39.24.39.47a.49.49,0,0,1-.54.53.48.48,0,0,1-.48-.28,1,1,0,0,1,0-.32h.19c0,.26,0,.42.33.42a.3.3,0,0,0,.34-.31c0-.27-.11-.27-.29-.34s-.25-.09-.35-.14a.39.39,0,0,1-.21-.4.46.46,0,0,1,.49-.48c.32,0,.52.17.5.5Z" transform="translate(-191.46 -70.23)"/><path class="cls-1" d="M314.6,102.27h.34V104h-.19v-1.45c0-.07,0-.15,0-.22h0c0,.1,0,.17-.05.24l-.37,1.44h-.23l-.37-1.46-.05-.22h0c0,.07,0,.15,0,.23V104h-.19v-1.76h.34l.35,1.37a1.61,1.61,0,0,1,0,.26h0a2,2,0,0,1,0-.26Z" transform="translate(-191.46 -70.23)"/><path class="cls-2" d="M320.25,81.67s0,22.37,0,22.37" transform="translate(-191.46 -70.23)"/><path class="cls-3" d="M320.25,81.67s0,22.37,0,22.37" transform="translate(-191.46 -70.23)"/><path class="cls-4" d="M212.84,113a21.39,21.39,0,1,1,21.38-21.39A21.38,21.38,0,0,1,212.84,113" transform="translate(-191.46 -70.23)"/><circle class="cls-5" cx="21.39" cy="21.39" r="20.18"/><rect class="cls-6" x="11.69" y="18.35" width="19.42" height="11.97"/><rect class="cls-4" x="12.34" y="18.85" width="1.7" height="11.16"/><rect class="cls-4" x="15.62" y="18.85" width="1.7" height="11.16"/><rect class="cls-4" x="18.9" y="18.85" width="1.7" height="11.16"/><rect class="cls-4" x="22.18" y="18.85" width="1.7" height="11.16"/><rect class="cls-4" x="25.46" y="18.85" width="1.7" height="11.16"/><rect class="cls-4" x="28.73" y="18.85" width="1.7" height="11.16"/><rect class="cls-4" x="11.95" y="12.17" width="18.89" height="5.89"/><rect class="cls-7" x="11.95" y="12.17" width="18.89" height="5.89"/><polygon class="cls-8" points="21.39 18.28 31.59 18.28 31.59 17.43 21.39 12.72 11.19 17.43 11.19 18.28 21.39 18.28"/><polygon class="cls-9" points="21.39 18.28 31.59 18.28 31.59 17.43 21.39 12.72 11.19 17.43 11.19 18.28 21.39 18.28"/><path class="cls-4" d="M212.85,76a9.27,9.27,0,0,0-8.8,6.36h17.6a9.27,9.27,0,0,0-8.8-6.36" transform="translate(-191.46 -70.23)"/><path class="cls-7" d="M200.15,104.18h25.41V103H200.15Zm14.66-28V75l-2-.51-2,.51v1.16m2-.14a9.27,9.27,0,0,0-8.8,6.36h17.6A9.27,9.27,0,0,0,212.85,76Z" transform="translate(-191.46 -70.23)"/><rect class="cls-6" x="9.91" y="31.54" width="22.96" height="1.2"/><rect class="cls-7" x="9.91" y="31.54" width="22.96" height="1.2"/><rect class="cls-6" x="11.14" y="30.34" width="20.51" height="1.2"/><rect class="cls-7" x="11.14" y="30.34" width="20.51" height="1.2"/><polygon class="cls-4" points="8.95 32.95 8.95 33.63 9.04 33.63 33.75 33.63 33.75 32.95 8.95 32.95"/><rect class="cls-4" x="10.28" y="31.86" width="22.23" height="0.68"/><rect class="cls-4" x="11.5" y="30.72" width="19.79" height="0.69"/><polygon class="cls-4" points="21.39 13.57 30.27 17.61 12.5 17.61 21.39 13.57"/></svg>